<svg width="161" height="28" viewBox="0 0 161 28" fill="none" xmlns="http://www.w3.org/2000/svg">
<path fill-rule="evenodd" clip-rule="evenodd" d="M83.0925 8.08248C82.1845 7.12183 80.6707 6.22241 78.7468 6.22241C74.7264 6.22241 71.7218 9.16559 71.7218 14.0096C71.7218 18.8755 74.6832 21.7574 78.6173 21.7574C80.6707 21.7574 82.2277 20.9805 83.481 19.6102L82.3787 18.4264C81.3614 19.4674 80.216 20.1015 78.7036 20.1015C75.6775 20.1015 73.7752 17.7298 73.7752 13.9484C73.7752 10.2079 75.7639 7.87701 78.7684 7.87701C80.1297 7.87701 81.1902 8.47027 82.0104 9.30846L83.0925 8.08248ZM144.954 7.26396V10.3922H148.133V11.9053H144.954V18.0991C144.954 19.468 145.41 20.245 146.771 20.245C147.181 20.245 147.722 20.1021 148.111 19.9592L148.5 21.3485C147.83 21.5539 147.052 21.758 146.338 21.758C143.832 21.758 142.988 20.2654 142.988 18.0583V11.9053H141.236V10.4942L143.075 10.3922L143.312 7.26396H144.954ZM114.243 10.3922V7.26398H112.6L112.362 10.3922L110.525 10.4943V11.9053H112.276V18.0583C112.276 20.2654 113.119 21.7581 115.626 21.7581C116.338 21.7581 117.118 21.554 117.787 21.3485L117.4 19.9592C117.01 20.1021 116.469 20.245 116.059 20.245C114.698 20.245 114.243 19.468 114.243 18.0992V11.9053H117.42V10.3922H114.243ZM69.7254 15.7678C69.7254 11.966 66.9367 9.75763 63.9106 9.75763C60.883 9.75763 58.0957 11.966 58.0957 15.7678C58.0957 19.5696 60.883 21.778 63.9106 21.778C66.9367 21.778 69.7254 19.5696 69.7254 15.7678ZM90.5995 10.1059C93.4745 10.1059 96.0474 12.253 96.0474 15.9528C96.0474 19.6321 93.4745 21.7575 90.5995 21.7575C87.7244 21.7575 85.153 19.6321 85.153 15.9528C85.153 12.253 87.7244 10.1059 90.5995 10.1059ZM128.319 14.6641C128.319 11.9264 127.107 10.1058 124.255 10.1058C122.374 10.1058 120.709 10.9031 119.629 11.5576L120.407 12.8448C121.337 12.2529 122.569 11.6597 123.93 11.6597C125.855 11.6597 126.352 13.0285 126.352 14.46C121.358 14.992 119.131 16.1976 119.131 18.6101C119.131 20.613 120.602 21.7574 122.569 21.7574C124.018 21.7574 125.336 21.043 126.46 20.1626H126.524L126.697 21.492H128.319V14.6641ZM136.627 10.1058C138.161 10.1058 139.22 10.7195 140.063 11.4148L139.048 12.6408C138.357 12.0693 137.643 11.6598 136.712 11.6598C134.574 11.6598 133.017 13.3974 133.017 15.9527C133.017 18.5068 134.486 20.2049 136.649 20.2049C137.729 20.2049 138.681 19.7341 139.416 19.1L140.281 20.3464C139.22 21.2472 137.881 21.7574 136.475 21.7574C133.362 21.7574 130.964 19.632 130.964 15.9527C130.964 12.253 133.623 10.1058 136.627 10.1058ZM160.588 15.9527C160.588 12.253 158.016 10.1058 155.141 10.1058C152.267 10.1058 149.694 12.253 149.694 15.9527C149.694 19.632 152.267 21.7574 155.141 21.7574C158.016 21.7574 160.588 19.632 160.588 15.9527ZM55.9715 9.75923C56.6421 9.75923 57.032 9.86128 57.3989 10.0042L56.8579 12.599C56.4262 12.4779 56.0809 12.4153 55.583 12.4153C54.6318 12.4153 53.4864 13.0086 52.8159 14.6645V21.4925H49.6372V10.045H52.2331L52.4705 12.0683H52.5353C53.4217 10.577 54.7182 9.75923 55.9715 9.75923ZM47.2083 11.107C47.2083 7.53111 44.4858 6.34459 40.9402 6.34459H35.6865V21.4918H38.8853V16.1157H41.0265C44.4642 16.1157 47.2083 14.5618 47.2083 11.107ZM104.723 10.1067C107.186 10.1067 108.312 11.6184 108.312 14.4595V21.4916H106.343V14.7044C106.343 12.6199 105.674 11.7422 104.117 11.7422C102.907 11.7422 102.085 12.3137 100.897 13.4376V21.4916H98.9295V10.3924H100.55L100.722 11.9858H100.787C101.911 10.9449 103.123 10.1067 104.723 10.1067ZM121.054 18.4861C121.054 17.056 122.396 16.1362 126.351 15.6858V18.7936C125.206 19.7543 124.278 20.2659 123.131 20.2659C121.962 20.2659 121.054 19.7543 121.054 18.4861ZM90.6 11.6595C88.5682 11.6595 87.2069 13.3971 87.2069 15.9524C87.2069 18.5065 88.5682 20.2046 90.6 20.2046C92.6318 20.2046 94.0161 18.5065 94.0161 15.9524C94.0161 13.3971 92.6318 11.6595 90.6 11.6595ZM151.748 15.9524C151.748 13.3971 153.111 11.6595 155.141 11.6595C157.173 11.6595 158.557 13.3971 158.557 15.9524C158.557 18.5064 157.173 20.2046 155.141 20.2046C153.111 20.2046 151.748 18.5064 151.748 15.9524ZM63.9098 12.2113C62.2665 12.2113 61.3369 13.621 61.3369 15.7682C61.3369 17.9358 62.2665 19.325 63.9098 19.325C65.5516 19.325 66.4812 17.9358 66.4812 15.7682C66.4812 13.621 65.5516 12.2113 63.9098 12.2113ZM38.8853 8.75713H40.7027C42.9072 8.75713 44.0742 9.35039 44.0742 11.107C44.0742 12.8446 43.0151 13.7236 40.8106 13.7236H38.8853V8.75713Z" fill="white"/>
<path d="M16.4705 3.84314H8.78418L12.7646 0L16.4705 3.84314Z" fill="white"/>
<path d="M24.1569 16.4707L24.1569 8.78442L28 12.7648L24.1569 16.4707Z" fill="white"/>
<path d="M11.5295 24.1569L19.2158 24.1569L15.2354 28L11.5295 24.1569Z" fill="white"/>
<path d="M3.84314 11.5293L3.84314 19.2156L-1.73989e-07 15.2352L3.84314 11.5293Z" fill="white"/>
<path fill-rule="evenodd" clip-rule="evenodd" d="M14.1381 3.84326C14.1381 8.31568 10.5125 11.9413 6.04004 11.9413V8.92169C8.84478 8.92169 11.1185 6.648 11.1185 3.84326H14.1381Z" fill="white"/>
<path fill-rule="evenodd" clip-rule="evenodd" d="M24.1562 14.1372C19.6838 14.1372 16.0582 10.5116 16.0582 6.03918L19.0778 6.03918C19.0778 8.84392 21.3515 11.1176 24.1562 11.1176L24.1562 14.1372Z" fill="white"/>
<path fill-rule="evenodd" clip-rule="evenodd" d="M13.8629 24.1567C13.8629 19.6843 17.4885 16.0587 21.9609 16.0587L21.9609 19.0783C19.1562 19.0783 16.8825 21.352 16.8825 24.1567L13.8629 24.1567Z" fill="white"/>
<path fill-rule="evenodd" clip-rule="evenodd" d="M3.84375 13.8628C8.31617 13.8628 11.9418 17.4884 11.9418 21.9608L8.92218 21.9608C8.92218 19.1561 6.64849 16.8824 3.84375 16.8824L3.84375 13.8628Z" fill="white"/>
</svg>
